<?xml version="1.0" encoding="UTF-8" standalone="no"?>
<!DOCTYPE svg PUBLIC "-//W3C//DTD SVG 1.1//EN"
 "http://www.w3.org/Graphics/SVG/1.1/DTD/svg11.dtd">
<!-- Generated by graphviz version 2.47.0 (20210316.0004)
 -->
<!-- Title: dependencies Pages: 1 -->
<svg width="1090pt" height="211pt"
 viewBox="0.00 0.00 1090.00 211.00" xmlns="http://www.w3.org/2000/svg" xmlns:xlink="http://www.w3.org/1999/xlink">
<g id="graph0" class="graph" transform="scale(1 1) rotate(0) translate(4 207)">
<title>dependencies</title>
<polygon fill="white" stroke="transparent" points="-4,4 -4,-207 1086,-207 1086,4 -4,4"/>
<text text-anchor="start" x="520.01" y="-42.4" font-family="Times-12" font-weight="bold" font-size="14.00">Legend</text>
<polygon fill="#ffffb3" stroke="transparent" points="307,-10 307,-30 327,-30 327,-10 307,-10"/>
<text text-anchor="start" x="330.63" y="-15.4" font-family="Times-12" font-size="14.00"> &#160;Declarations</text>
<polygon fill="#8dd3c7" stroke="transparent" points="420,-10 420,-30 440,-30 440,-10 420,-10"/>
<text text-anchor="start" x="443.73" y="-15.4" font-family="Times-12" font-size="14.00"> &#160;Module</text>
<polygon fill="#80b1d3" stroke="transparent" points="506,-10 506,-30 526,-30 526,-10 506,-10"/>
<text text-anchor="start" x="529.78" y="-15.4" font-family="Times-12" font-size="14.00"> &#160;Bootstrap</text>
<polygon fill="#fdb462" stroke="transparent" points="603,-10 603,-30 623,-30 623,-10 603,-10"/>
<text text-anchor="start" x="626.67" y="-15.4" font-family="Times-12" font-size="14.00"> &#160;Providers</text>
<polygon fill="#fb8072" stroke="transparent" points="699,-10 699,-30 719,-30 719,-10 699,-10"/>
<text text-anchor="start" x="722.73" y="-15.4" font-family="Times-12" font-size="14.00"> &#160;Exports</text>
<g id="clust1" class="cluster">
<title>cluster_AppModule</title>
<polygon fill="none" stroke="black" stroke-dasharray="1,5" points="8,-70 8,-195 1074,-195 1074,-70 8,-70"/>
</g>
<g id="clust6" class="cluster">
<title>cluster_AppModule_providers</title>
<polygon fill="none" stroke="black" points="467,-78 467,-130 1066,-130 1066,-78 467,-78"/>
</g>
<g id="clust3" class="cluster">
<title>cluster_AppModule_imports</title>
<polygon fill="none" stroke="black" points="16,-78 16,-130 459,-130 459,-78 16,-78"/>
</g>
<!-- AuthModule -->
<g id="node1" class="node">
<title>AuthModule</title>
<polygon fill="#8dd3c7" stroke="black" points="450.55,-122 447.55,-126 426.55,-126 423.55,-122 363.45,-122 363.45,-86 450.55,-86 450.55,-122"/>
<text text-anchor="middle" x="407" y="-99.8" font-family="Times,serif" font-size="14.00">AuthModule</text>
</g>
<!-- AppModule -->
<g id="node5" class="node">
<title>AppModule</title>
<polygon fill="#8dd3c7" stroke="black" points="513.66,-187 510.66,-191 489.66,-191 486.66,-187 430.34,-187 430.34,-151 513.66,-151 513.66,-187"/>
<text text-anchor="middle" x="472" y="-164.8" font-family="Times,serif" font-size="14.00">AppModule</text>
</g>
<!-- AuthModule&#45;&gt;AppModule -->
<g id="edge1" class="edge">
<title>AuthModule&#45;&gt;AppModule</title>
<path fill="none" stroke="black" d="M440.47,-122.11C440.47,-122.11 440.47,-140.99 440.47,-140.99"/>
<polygon fill="black" stroke="black" points="436.97,-140.99 440.47,-150.99 443.97,-140.99 436.97,-140.99"/>
</g>
<!-- GraphqlModule -->
<g id="node2" class="node">
<title>GraphqlModule</title>
<polygon fill="#8dd3c7" stroke="black" points="345.92,-122 342.92,-126 321.92,-126 318.92,-122 240.08,-122 240.08,-86 345.92,-86 345.92,-122"/>
<text text-anchor="middle" x="293" y="-99.8" font-family="Times,serif" font-size="14.00">GraphqlModule</text>
</g>
<!-- GraphqlModule&#45;&gt;AppModule -->
<g id="edge2" class="edge">
<title>GraphqlModule&#45;&gt;AppModule</title>
<path fill="none" stroke="black" d="M293,-122.03C293,-138.4 293,-160 293,-160 293,-160 420.03,-160 420.03,-160"/>
<polygon fill="black" stroke="black" points="420.03,-163.5 430.03,-160 420.03,-156.5 420.03,-163.5"/>
</g>
<!-- KafkaModule -->
<g id="node3" class="node">
<title>KafkaModule</title>
<polygon fill="#8dd3c7" stroke="black" points="221.75,-122 218.75,-126 197.75,-126 194.75,-122 128.25,-122 128.25,-86 221.75,-86 221.75,-122"/>
<text text-anchor="middle" x="175" y="-99.8" font-family="Times,serif" font-size="14.00">KafkaModule</text>
</g>
<!-- KafkaModule&#45;&gt;AppModule -->
<g id="edge3" class="edge">
<title>KafkaModule&#45;&gt;AppModule</title>
<path fill="none" stroke="black" d="M175,-122.11C175,-141.34 175,-169 175,-169 175,-169 420.08,-169 420.08,-169"/>
<polygon fill="black" stroke="black" points="420.08,-172.5 430.08,-169 420.08,-165.5 420.08,-172.5"/>
</g>
<!-- UserModule -->
<g id="node4" class="node">
<title>UserModule</title>
<polygon fill="#8dd3c7" stroke="black" points="109.98,-122 106.98,-126 85.98,-126 82.98,-122 24.02,-122 24.02,-86 109.98,-86 109.98,-122"/>
<text text-anchor="middle" x="67" y="-99.8" font-family="Times,serif" font-size="14.00">UserModule</text>
</g>
<!-- UserModule&#45;&gt;AppModule -->
<g id="edge4" class="edge">
<title>UserModule&#45;&gt;AppModule</title>
<path fill="none" stroke="black" d="M67,-122.29C67,-144.21 67,-178 67,-178 67,-178 420.18,-178 420.18,-178"/>
<polygon fill="black" stroke="black" points="420.18,-181.5 430.18,-178 420.18,-174.5 420.18,-181.5"/>
</g>
<!-- CustomLogger -->
<g id="node6" class="node">
<title>CustomLogger</title>
<ellipse fill="#fdb462" stroke="black" cx="989" cy="-104" rx="68.94" ry="18"/>
<text text-anchor="middle" x="989" y="-99.8" font-family="Times,serif" font-size="14.00">CustomLogger</text>
</g>
<!-- CustomLogger&#45;&gt;AppModule -->
<g id="edge5" class="edge">
<title>CustomLogger&#45;&gt;AppModule</title>
<path fill="none" stroke="black" d="M989,-122.29C989,-144.21 989,-178 989,-178 989,-178 523.87,-178 523.87,-178"/>
<polygon fill="black" stroke="black" points="523.87,-174.5 513.87,-178 523.87,-181.5 523.87,-174.5"/>
</g>
<!-- MailerService -->
<g id="node7" class="node">
<title>MailerService</title>
<ellipse fill="#fdb462" stroke="black" cx="836" cy="-104" rx="65.96" ry="18"/>
<text text-anchor="middle" x="836" y="-99.8" font-family="Times,serif" font-size="14.00">MailerService</text>
</g>
<!-- MailerService&#45;&gt;AppModule -->
<g id="edge6" class="edge">
<title>MailerService&#45;&gt;AppModule</title>
<path fill="none" stroke="black" d="M836,-122.11C836,-141.34 836,-169 836,-169 836,-169 523.76,-169 523.76,-169"/>
<polygon fill="black" stroke="black" points="523.76,-165.5 513.76,-169 523.76,-172.5 523.76,-165.5"/>
</g>
<!-- PrismaService -->
<g id="node8" class="node">
<title>PrismaService</title>
<ellipse fill="#fdb462" stroke="black" cx="685" cy="-104" rx="66.63" ry="18"/>
<text text-anchor="middle" x="685" y="-99.8" font-family="Times,serif" font-size="14.00">PrismaService</text>
</g>
<!-- PrismaService&#45;&gt;AppModule -->
<g id="edge7" class="edge">
<title>PrismaService&#45;&gt;AppModule</title>
<path fill="none" stroke="black" d="M685,-122.03C685,-138.4 685,-160 685,-160 685,-160 523.83,-160 523.83,-160"/>
<polygon fill="black" stroke="black" points="523.83,-156.5 513.83,-160 523.83,-163.5 523.83,-156.5"/>
</g>
<!-- TasksService -->
<g id="node9" class="node">
<title>TasksService</title>
<ellipse fill="#fdb462" stroke="black" cx="538" cy="-104" rx="62.54" ry="18"/>
<text text-anchor="middle" x="538" y="-99.8" font-family="Times,serif" font-size="14.00">TasksService</text>
</g>
<!-- TasksService&#45;&gt;AppModule -->
<g id="edge8" class="edge">
<title>TasksService&#45;&gt;AppModule</title>
<path fill="none" stroke="black" d="M494.66,-117.15C494.66,-117.15 494.66,-140.69 494.66,-140.69"/>
<polygon fill="black" stroke="black" points="491.16,-140.69 494.66,-150.69 498.16,-140.69 491.16,-140.69"/>
</g>
</g>
</svg>
