<?xml version="1.0" encoding="UTF-8" standalone="no"?>
<!DOCTYPE svg PUBLIC "-//W3C//DTD SVG 1.1//EN"
 "http://www.w3.org/Graphics/SVG/1.1/DTD/svg11.dtd">
<!-- Generated by graphviz version 2.47.0 (20210316.0004)
 -->
<!-- Title: dependencies Pages: 1 -->
<svg width="774pt" height="284pt"
 viewBox="0.00 0.00 774.00 284.00" xmlns="http://www.w3.org/2000/svg" xmlns:xlink="http://www.w3.org/1999/xlink">
<g id="graph0" class="graph" transform="scale(1 1) rotate(0) translate(4 280)">
<title>dependencies</title>
<polygon fill="white" stroke="transparent" points="-4,4 -4,-280 770,-280 770,4 -4,4"/>
<text text-anchor="start" x="362.01" y="-42.4" font-family="Times-12" font-weight="bold" font-size="14.00">Legend</text>
<polygon fill="#ffffb3" stroke="transparent" points="149,-10 149,-30 169,-30 169,-10 149,-10"/>
<text text-anchor="start" x="172.63" y="-15.4" font-family="Times-12" font-size="14.00"> &#160;Declarations</text>
<polygon fill="#8dd3c7" stroke="transparent" points="262,-10 262,-30 282,-30 282,-10 262,-10"/>
<text text-anchor="start" x="285.73" y="-15.4" font-family="Times-12" font-size="14.00"> &#160;Module</text>
<polygon fill="#80b1d3" stroke="transparent" points="348,-10 348,-30 368,-30 368,-10 348,-10"/>
<text text-anchor="start" x="371.78" y="-15.4" font-family="Times-12" font-size="14.00"> &#160;Bootstrap</text>
<polygon fill="#fdb462" stroke="transparent" points="445,-10 445,-30 465,-30 465,-10 445,-10"/>
<text text-anchor="start" x="468.67" y="-15.4" font-family="Times-12" font-size="14.00"> &#160;Providers</text>
<polygon fill="#fb8072" stroke="transparent" points="541,-10 541,-30 561,-30 561,-10 541,-10"/>
<text text-anchor="start" x="564.73" y="-15.4" font-family="Times-12" font-size="14.00"> &#160;Exports</text>
<g id="clust1" class="cluster">
<title>cluster_AuthModule</title>
<polygon fill="none" stroke="black" stroke-dasharray="1,5" points="8,-70 8,-268 758,-268 758,-70 8,-70"/>
</g>
<g id="clust4" class="cluster">
<title>cluster_AuthModule_exports</title>
<polygon fill="none" stroke="black" points="288,-208 288,-260 402,-260 402,-208 288,-208"/>
</g>
<g id="clust6" class="cluster">
<title>cluster_AuthModule_providers</title>
<polygon fill="none" stroke="black" points="16,-78 16,-130 750,-130 750,-78 16,-78"/>
</g>
<!-- AuthResolver  -->
<g id="node1" class="node">
<title>AuthResolver </title>
<polygon fill="#fb8072" stroke="black" points="393.76,-252 296.24,-252 296.24,-216 393.76,-216 393.76,-252"/>
<text text-anchor="middle" x="345" y="-229.8" font-family="Times,serif" font-size="14.00">AuthResolver </text>
</g>
<!-- AuthModule -->
<g id="node2" class="node">
<title>AuthModule</title>
<polygon fill="#8dd3c7" stroke="black" points="388.55,-187 385.55,-191 364.55,-191 361.55,-187 301.45,-187 301.45,-151 388.55,-151 388.55,-187"/>
<text text-anchor="middle" x="345" y="-164.8" font-family="Times,serif" font-size="14.00">AuthModule</text>
</g>
<!-- AuthModule&#45;&gt;AuthResolver  -->
<g id="edge1" class="edge">
<title>AuthModule&#45;&gt;AuthResolver </title>
<path fill="none" stroke="black" stroke-dasharray="5,2" d="M345,-187.11C345,-187.11 345,-205.99 345,-205.99"/>
<polygon fill="black" stroke="black" points="341.5,-205.99 345,-215.99 348.5,-205.99 341.5,-205.99"/>
</g>
<!-- JWTRefreshTokenStrategy -->
<g id="node3" class="node">
<title>JWTRefreshTokenStrategy</title>
<ellipse fill="#fdb462" stroke="black" cx="625" cy="-104" rx="116.87" ry="18"/>
<text text-anchor="middle" x="625" y="-99.8" font-family="Times,serif" font-size="14.00">JWTRefreshTokenStrategy</text>
</g>
<!-- JWTRefreshTokenStrategy&#45;&gt;AuthModule -->
<g id="edge2" class="edge">
<title>JWTRefreshTokenStrategy&#45;&gt;AuthModule</title>
<path fill="none" stroke="black" d="M625,-122.11C625,-141.34 625,-169 625,-169 625,-169 398.75,-169 398.75,-169"/>
<polygon fill="black" stroke="black" points="398.75,-165.5 388.75,-169 398.75,-172.5 398.75,-165.5"/>
</g>
<!-- JWTStrategy -->
<g id="node4" class="node">
<title>JWTStrategy</title>
<ellipse fill="#fdb462" stroke="black" cx="428" cy="-104" rx="61.98" ry="18"/>
<text text-anchor="middle" x="428" y="-99.8" font-family="Times,serif" font-size="14.00">JWTStrategy</text>
</g>
<!-- JWTStrategy&#45;&gt;AuthModule -->
<g id="edge3" class="edge">
<title>JWTStrategy&#45;&gt;AuthModule</title>
<path fill="none" stroke="black" d="M377.39,-114.44C377.39,-114.44 377.39,-140.97 377.39,-140.97"/>
<polygon fill="black" stroke="black" points="373.89,-140.97 377.39,-150.97 380.89,-140.97 373.89,-140.97"/>
</g>
<!-- PrismaAuthService -->
<g id="node5" class="node">
<title>PrismaAuthService</title>
<ellipse fill="#fdb462" stroke="black" cx="262" cy="-104" rx="86.25" ry="18"/>
<text text-anchor="middle" x="262" y="-99.8" font-family="Times,serif" font-size="14.00">PrismaAuthService</text>
</g>
<!-- PrismaAuthService&#45;&gt;AuthModule -->
<g id="edge4" class="edge">
<title>PrismaAuthService&#45;&gt;AuthModule</title>
<path fill="none" stroke="black" d="M324.68,-116.53C324.68,-116.53 324.68,-140.85 324.68,-140.85"/>
<polygon fill="black" stroke="black" points="321.18,-140.85 324.68,-150.85 328.18,-140.85 321.18,-140.85"/>
</g>
<!-- PrismaService -->
<g id="node6" class="node">
<title>PrismaService</title>
<ellipse fill="#fdb462" stroke="black" cx="91" cy="-104" rx="66.63" ry="18"/>
<text text-anchor="middle" x="91" y="-99.8" font-family="Times,serif" font-size="14.00">PrismaService</text>
</g>
<!-- PrismaService&#45;&gt;AuthModule -->
<g id="edge5" class="edge">
<title>PrismaService&#45;&gt;AuthModule</title>
<path fill="none" stroke="black" d="M91,-122.11C91,-141.34 91,-169 91,-169 91,-169 291.34,-169 291.34,-169"/>
<polygon fill="black" stroke="black" points="291.34,-172.5 301.34,-169 291.34,-165.5 291.34,-172.5"/>
</g>
</g>
</svg>
