<?xml version="1.0" encoding="UTF-8" standalone="no"?>
<!DOCTYPE svg PUBLIC "-//W3C//DTD SVG 1.1//EN"
 "http://www.w3.org/Graphics/SVG/1.1/DTD/svg11.dtd">
<!-- Generated by graphviz version 2.47.0 (20210316.0004)
 -->
<!-- Title: dependencies Pages: 1 -->
<svg width="1662pt" height="290pt"
 viewBox="0.00 0.00 1662.00 290.00" xmlns="http://www.w3.org/2000/svg" xmlns:xlink="http://www.w3.org/1999/xlink">
<g id="graph0" class="graph" transform="scale(1 1) rotate(0) translate(4 286)">
<title>dependencies</title>
<polygon fill="white" stroke="transparent" points="-4,4 -4,-286 1658,-286 1658,4 -4,4"/>
<text text-anchor="start" x="806.01" y="-42.4" font-family="Times-12" font-weight="bold" font-size="14.00">Legend</text>
<polygon fill="#ffffb3" stroke="transparent" points="593,-10 593,-30 613,-30 613,-10 593,-10"/>
<text text-anchor="start" x="616.63" y="-15.4" font-family="Times-12" font-size="14.00"> &#160;Declarations</text>
<polygon fill="#8dd3c7" stroke="transparent" points="706,-10 706,-30 726,-30 726,-10 706,-10"/>
<text text-anchor="start" x="729.73" y="-15.4" font-family="Times-12" font-size="14.00"> &#160;Module</text>
<polygon fill="#80b1d3" stroke="transparent" points="792,-10 792,-30 812,-30 812,-10 792,-10"/>
<text text-anchor="start" x="815.78" y="-15.4" font-family="Times-12" font-size="14.00"> &#160;Bootstrap</text>
<polygon fill="#fdb462" stroke="transparent" points="889,-10 889,-30 909,-30 909,-10 889,-10"/>
<text text-anchor="start" x="912.67" y="-15.4" font-family="Times-12" font-size="14.00"> &#160;Providers</text>
<polygon fill="#fb8072" stroke="transparent" points="985,-10 985,-30 1005,-30 1005,-10 985,-10"/>
<text text-anchor="start" x="1008.73" y="-15.4" font-family="Times-12" font-size="14.00"> &#160;Exports</text>
<g id="clust1" class="cluster">
<title>cluster_AppModule</title>
<polygon fill="none" stroke="black" stroke-dasharray="1,5" points="8,-70 8,-266 622,-266 622,-70 8,-70"/>
</g>
<g id="clust3" class="cluster">
<title>cluster_AppModule_imports</title>
<polygon fill="none" stroke="black" points="170,-146 170,-198 614,-198 614,-146 170,-146"/>
</g>
<g id="clust6" class="cluster">
<title>cluster_AppModule_providers</title>
<polygon fill="none" stroke="black" points="16,-78 16,-130 614,-130 614,-78 16,-78"/>
</g>
<g id="clust7" class="cluster">
<title>cluster_AuthModule</title>
<polygon fill="none" stroke="black" stroke-dasharray="1,5" points="630,-70 630,-138 1350,-138 1350,-70 630,-70"/>
</g>
<g id="clust10" class="cluster">
<title>cluster_AuthModule_exports</title>
<polygon fill="none" stroke="black" points="1228,-78 1228,-130 1342,-130 1342,-78 1228,-78"/>
</g>
<g id="clust12" class="cluster">
<title>cluster_AuthModule_providers</title>
<polygon fill="none" stroke="black" points="638,-78 638,-130 1220,-130 1220,-78 638,-78"/>
</g>
<g id="clust19" class="cluster">
<title>cluster_KafkaModule</title>
<polygon fill="none" stroke="black" stroke-dasharray="1,5" points="1358,-70 1358,-138 1646,-138 1646,-70 1358,-70"/>
</g>
<g id="clust24" class="cluster">
<title>cluster_KafkaModule_providers</title>
<polygon fill="none" stroke="black" points="1366,-78 1366,-130 1638,-130 1638,-78 1366,-78"/>
</g>
<g id="clust25" class="cluster">
<title>cluster_UserModule</title>
<polygon fill="none" stroke="black" stroke-dasharray="1,5" points="630,-206 630,-274 966,-274 966,-206 630,-206"/>
</g>
<g id="clust28" class="cluster">
<title>cluster_UserModule_exports</title>
<polygon fill="none" stroke="black" points="840,-214 840,-266 958,-266 958,-214 840,-214"/>
</g>
<g id="clust30" class="cluster">
<title>cluster_UserModule_providers</title>
<polygon fill="none" stroke="black" points="638,-214 638,-266 832,-266 832,-214 638,-214"/>
</g>
<!-- AuthModule -->
<g id="node1" class="node">
<title>AuthModule</title>
<polygon fill="#8dd3c7" stroke="black" points="493.55,-190 490.55,-194 469.55,-194 466.55,-190 406.45,-190 406.45,-154 493.55,-154 493.55,-190"/>
<text text-anchor="middle" x="450" y="-167.8" font-family="Times,serif" font-size="14.00">AuthModule</text>
</g>
<!-- AppModule -->
<g id="node5" class="node">
<title>AppModule</title>
<polygon fill="#8dd3c7" stroke="black" points="236.66,-258 233.66,-262 212.66,-262 209.66,-258 153.34,-258 153.34,-222 236.66,-222 236.66,-258"/>
<text text-anchor="middle" x="195" y="-235.8" font-family="Times,serif" font-size="14.00">AppModule</text>
</g>
<!-- AuthModule&#45;&gt;AppModule -->
<g id="edge1" class="edge">
<title>AuthModule&#45;&gt;AppModule</title>
<path fill="none" stroke="black" d="M450,-190.28C450,-211.32 450,-243 450,-243 450,-243 246.82,-243 246.82,-243"/>
<polygon fill="black" stroke="black" points="246.82,-239.5 236.82,-243 246.82,-246.5 246.82,-239.5"/>
</g>
<!-- AuthResolver  -->
<g id="node10" class="node">
<title>AuthResolver </title>
<polygon fill="#fb8072" stroke="black" points="1333.76,-122 1236.24,-122 1236.24,-86 1333.76,-86 1333.76,-122"/>
<text text-anchor="middle" x="1285" y="-99.8" font-family="Times,serif" font-size="14.00">AuthResolver </text>
</g>
<!-- AuthModule&#45;&gt;AuthResolver  -->
<g id="edge9" class="edge">
<title>AuthModule&#45;&gt;AuthResolver </title>
<path fill="none" stroke="black" stroke-dasharray="5,2" d="M481.44,-153.88C481.44,-151.03 481.44,-149 481.44,-149 481.44,-149 1285,-149 1285,-149 1285,-149 1285,-132.04 1285,-132.04"/>
<polygon fill="black" stroke="black" points="1288.5,-132.04 1285,-122.04 1281.5,-132.04 1288.5,-132.04"/>
</g>
<!-- GraphqlModule -->
<g id="node2" class="node">
<title>GraphqlModule</title>
<polygon fill="#8dd3c7" stroke="black" points="283.92,-190 280.92,-194 259.92,-194 256.92,-190 178.08,-190 178.08,-154 283.92,-154 283.92,-190"/>
<text text-anchor="middle" x="231" y="-167.8" font-family="Times,serif" font-size="14.00">GraphqlModule</text>
</g>
<!-- GraphqlModule&#45;&gt;AppModule -->
<g id="edge2" class="edge">
<title>GraphqlModule&#45;&gt;AppModule</title>
<path fill="none" stroke="black" d="M207.56,-190.22C207.56,-190.22 207.56,-211.73 207.56,-211.73"/>
<polygon fill="black" stroke="black" points="204.06,-211.73 207.56,-221.73 211.06,-211.73 204.06,-211.73"/>
</g>
<!-- KafkaModule -->
<g id="node3" class="node">
<title>KafkaModule</title>
<polygon fill="#8dd3c7" stroke="black" points="605.75,-190 602.75,-194 581.75,-194 578.75,-190 512.25,-190 512.25,-154 605.75,-154 605.75,-190"/>
<text text-anchor="middle" x="559" y="-167.8" font-family="Times,serif" font-size="14.00">KafkaModule</text>
</g>
<!-- KafkaModule&#45;&gt;AppModule -->
<g id="edge3" class="edge">
<title>KafkaModule&#45;&gt;AppModule</title>
<path fill="none" stroke="black" d="M559,-190.38C559,-214.28 559,-253 559,-253 559,-253 246.76,-253 246.76,-253"/>
<polygon fill="black" stroke="black" points="246.76,-249.5 236.76,-253 246.76,-256.5 246.76,-249.5"/>
</g>
<!-- UserModule -->
<g id="node4" class="node">
<title>UserModule</title>
<polygon fill="#8dd3c7" stroke="black" points="387.98,-190 384.98,-194 363.98,-194 360.98,-190 302.02,-190 302.02,-154 387.98,-154 387.98,-190"/>
<text text-anchor="middle" x="345" y="-167.8" font-family="Times,serif" font-size="14.00">UserModule</text>
</g>
<!-- UserModule&#45;&gt;AppModule -->
<g id="edge4" class="edge">
<title>UserModule&#45;&gt;AppModule</title>
<path fill="none" stroke="black" d="M345,-190.3C345,-208.27 345,-233 345,-233 345,-233 246.78,-233 246.78,-233"/>
<polygon fill="black" stroke="black" points="246.78,-229.5 236.78,-233 246.78,-236.5 246.78,-229.5"/>
</g>
<!-- UsersResolver  -->
<g id="node15" class="node">
<title>UsersResolver </title>
<polygon fill="#fb8072" stroke="black" points="949.63,-258 848.37,-258 848.37,-222 949.63,-222 949.63,-258"/>
<text text-anchor="middle" x="899" y="-235.8" font-family="Times,serif" font-size="14.00">UsersResolver </text>
</g>
<!-- UserModule&#45;&gt;UsersResolver  -->
<g id="edge15" class="edge">
<title>UserModule&#45;&gt;UsersResolver </title>
<path fill="none" stroke="black" stroke-dasharray="5,2" d="M323.51,-190.19C323.51,-198.28 323.51,-206 323.51,-206 323.51,-206 899,-206 899,-206 899,-206 899,-211.81 899,-211.81"/>
<polygon fill="black" stroke="black" points="895.5,-211.81 899,-221.81 902.5,-211.81 895.5,-211.81"/>
</g>
<!-- CustomLogger -->
<g id="node6" class="node">
<title>CustomLogger</title>
<ellipse fill="#fdb462" stroke="black" cx="243" cy="-104" rx="68.94" ry="18"/>
<text text-anchor="middle" x="243" y="-99.8" font-family="Times,serif" font-size="14.00">CustomLogger</text>
</g>
<!-- CustomLogger&#45;&gt;AppModule -->
<g id="edge5" class="edge">
<title>CustomLogger&#45;&gt;AppModule</title>
<path fill="none" stroke="black" d="M177.74,-110C171.78,-110 167.93,-110 167.93,-110 167.93,-110 167.93,-211.92 167.93,-211.92"/>
<polygon fill="black" stroke="black" points="164.43,-211.92 167.93,-221.92 171.43,-211.92 164.43,-211.92"/>
</g>
<!-- MailerService -->
<g id="node7" class="node">
<title>MailerService</title>
<ellipse fill="#fdb462" stroke="black" cx="90" cy="-104" rx="65.96" ry="18"/>
<text text-anchor="middle" x="90" y="-99.8" font-family="Times,serif" font-size="14.00">MailerService</text>
</g>
<!-- MailerService&#45;&gt;AppModule -->
<g id="edge6" class="edge">
<title>MailerService&#45;&gt;AppModule</title>
<path fill="none" stroke="black" d="M152.14,-98C158.02,-98 161.83,-98 161.83,-98 161.83,-98 161.83,-211.73 161.83,-211.73"/>
<polygon fill="black" stroke="black" points="158.33,-211.73 161.83,-221.73 165.33,-211.73 158.33,-211.73"/>
</g>
<!-- PrismaService -->
<g id="node8" class="node">
<title>PrismaService</title>
<ellipse fill="#fdb462" stroke="black" cx="539" cy="-104" rx="66.63" ry="18"/>
<text text-anchor="middle" x="539" y="-99.8" font-family="Times,serif" font-size="14.00">PrismaService</text>
</g>
<!-- PrismaService&#45;&gt;AuthModule -->
<g id="edge13" class="edge">
<title>PrismaService&#45;&gt;AuthModule</title>
<path fill="none" stroke="black" d="M478.35,-111.8C478.35,-111.8 478.35,-143.85 478.35,-143.85"/>
<polygon fill="black" stroke="black" points="474.85,-143.85 478.35,-153.85 481.85,-143.85 474.85,-143.85"/>
</g>
<!-- PrismaService&#45;&gt;UserModule -->
<g id="edge16" class="edge">
<title>PrismaService&#45;&gt;UserModule</title>
<path fill="none" stroke="black" d="M475.27,-109.57C475.27,-116.66 475.27,-128 475.27,-128 475.27,-128 358.74,-128 358.74,-128 358.74,-128 358.74,-143.85 358.74,-143.85"/>
<polygon fill="black" stroke="black" points="355.24,-143.85 358.74,-153.85 362.24,-143.85 355.24,-143.85"/>
</g>
<!-- PrismaService&#45;&gt;AppModule -->
<g id="edge7" class="edge">
<title>PrismaService&#45;&gt;AppModule</title>
<path fill="none" stroke="black" d="M502.95,-119.41C502.95,-156.56 502.95,-248 502.95,-248 502.95,-248 246.85,-248 246.85,-248"/>
<polygon fill="black" stroke="black" points="246.85,-244.5 236.85,-248 246.85,-251.5 246.85,-244.5"/>
</g>
<!-- TasksService -->
<g id="node9" class="node">
<title>TasksService</title>
<ellipse fill="#fdb462" stroke="black" cx="392" cy="-104" rx="62.54" ry="18"/>
<text text-anchor="middle" x="392" y="-99.8" font-family="Times,serif" font-size="14.00">TasksService</text>
</g>
<!-- TasksService&#45;&gt;AppModule -->
<g id="edge8" class="edge">
<title>TasksService&#45;&gt;AppModule</title>
<path fill="none" stroke="black" d="M397.11,-122.07C397.11,-158.65 397.11,-238 397.11,-238 397.11,-238 246.88,-238 246.88,-238"/>
<polygon fill="black" stroke="black" points="246.88,-234.5 236.88,-238 246.88,-241.5 246.88,-234.5"/>
</g>
<!-- JWTRefreshTokenStrategy -->
<g id="node11" class="node">
<title>JWTRefreshTokenStrategy</title>
<ellipse fill="#fdb462" stroke="black" cx="1095" cy="-104" rx="116.87" ry="18"/>
<text text-anchor="middle" x="1095" y="-99.8" font-family="Times,serif" font-size="14.00">JWTRefreshTokenStrategy</text>
</g>
<!-- JWTRefreshTokenStrategy&#45;&gt;AuthModule -->
<g id="edge10" class="edge">
<title>JWTRefreshTokenStrategy&#45;&gt;AuthModule</title>
<path fill="none" stroke="black" d="M1095,-122.13C1095,-132.71 1095,-144 1095,-144 1095,-144 490.69,-144 490.69,-144 490.69,-144 490.69,-144.98 490.69,-144.98"/>
<polygon fill="black" stroke="black" points="487.19,-143.79 490.69,-153.79 494.19,-143.79 487.19,-143.79"/>
</g>
<!-- JWTStrategy -->
<g id="node12" class="node">
<title>JWTStrategy</title>
<ellipse fill="#fdb462" stroke="black" cx="898" cy="-104" rx="61.98" ry="18"/>
<text text-anchor="middle" x="898" y="-99.8" font-family="Times,serif" font-size="14.00">JWTStrategy</text>
</g>
<!-- JWTStrategy&#45;&gt;AuthModule -->
<g id="edge11" class="edge">
<title>JWTStrategy&#45;&gt;AuthModule</title>
<path fill="none" stroke="black" d="M842.22,-111.89C842.22,-121.93 842.22,-138 842.22,-138 842.22,-138 487.61,-138 487.61,-138 487.61,-138 487.61,-143.81 487.61,-143.81"/>
<polygon fill="black" stroke="black" points="484.11,-143.81 487.61,-153.81 491.11,-143.81 484.11,-143.81"/>
</g>
<!-- PrismaAuthService -->
<g id="node13" class="node">
<title>PrismaAuthService</title>
<ellipse fill="#fdb462" stroke="black" cx="732" cy="-104" rx="86.25" ry="18"/>
<text text-anchor="middle" x="732" y="-99.8" font-family="Times,serif" font-size="14.00">PrismaAuthService</text>
</g>
<!-- PrismaAuthService&#45;&gt;AuthModule -->
<g id="edge12" class="edge">
<title>PrismaAuthService&#45;&gt;AuthModule</title>
<path fill="none" stroke="black" d="M732.16,-122.2C732.16,-128.03 732.16,-133 732.16,-133 732.16,-133 484.52,-133 484.52,-133 484.52,-133 484.52,-143.87 484.52,-143.87"/>
<polygon fill="black" stroke="black" points="481.02,-143.87 484.52,-153.87 488.02,-143.87 481.02,-143.87"/>
</g>
<!-- KafkaHumanResourceService -->
<g id="node14" class="node">
<title>KafkaHumanResourceService</title>
<ellipse fill="#fdb462" stroke="black" cx="1502" cy="-104" rx="127.87" ry="18"/>
<text text-anchor="middle" x="1502" y="-99.8" font-family="Times,serif" font-size="14.00">KafkaHumanResourceService</text>
</g>
<!-- KafkaHumanResourceService&#45;&gt;KafkaModule -->
<g id="edge14" class="edge">
<title>KafkaHumanResourceService&#45;&gt;KafkaModule</title>
<path fill="none" stroke="black" d="M1502,-122.22C1502,-142.37 1502,-172 1502,-172 1502,-172 615.76,-172 615.76,-172"/>
<polygon fill="black" stroke="black" points="615.76,-168.5 605.76,-172 615.76,-175.5 615.76,-168.5"/>
</g>
<!-- PrismaUsersService -->
<g id="node16" class="node">
<title>PrismaUsersService</title>
<ellipse fill="#fdb462" stroke="black" cx="735" cy="-240" rx="88.59" ry="18"/>
<text text-anchor="middle" x="735" y="-235.8" font-family="Times,serif" font-size="14.00">PrismaUsersService</text>
</g>
<!-- PrismaUsersService&#45;&gt;UserModule -->
<g id="edge17" class="edge">
<title>PrismaUsersService&#45;&gt;UserModule</title>
<path fill="none" stroke="black" d="M668.69,-228C562.6,-228 366.49,-228 366.49,-228 366.49,-228 366.49,-200.03 366.49,-200.03"/>
<polygon fill="black" stroke="black" points="369.99,-200.03 366.49,-190.03 362.99,-200.03 369.99,-200.03"/>
</g>
</g>
</svg>
